<?xml version="1.0" encoding="UTF-8" standalone="no"?>
<svg
   xmlns:dc="http://purl.org/dc/elements/1.1/"
   xmlns:cc="http://creativecommons.org/ns#"
   xmlns:rdf="http://www.w3.org/1999/02/22-rdf-syntax-ns#"
   xmlns:svg="http://www.w3.org/2000/svg"
   xmlns="http://www.w3.org/2000/svg"
   xmlns:sodipodi="http://sodipodi.sourceforge.net/DTD/sodipodi-0.dtd"
   xmlns:inkscape="http://www.inkscape.org/namespaces/inkscape"
   width="245.61563mm"
   height="27.661907mm"
   viewBox="0 0 245.61563 27.661907"
   version="1.1"
   id="svg8"
   sodipodi:docname="orangeliner_logo_2022_accent.svg"
   inkscape:export-filename="C:\Users\egamasa\Desktop\orangeliner_logo_2022.png"
   inkscape:export-xdpi="66.18"
   inkscape:export-ydpi="66.18"
   inkscape:version="1.0.1 (3bc2e813f5, 2020-09-07)">
  <defs
     id="defs2" />
  <sodipodi:namedview
     id="base"
     pagecolor="#ffffff"
     bordercolor="#666666"
     borderopacity="1.0"
     inkscape:pageopacity="0.0"
     inkscape:pageshadow="2"
     inkscape:zoom="1.4"
     inkscape:cx="456.91973"
     inkscape:cy="186.48646"
     inkscape:document-units="mm"
     inkscape:current-layer="g891"
     inkscape:document-rotation="0"
     showgrid="false"
     inkscape:window-width="2560"
     inkscape:window-height="1369"
     inkscape:window-x="-8"
     inkscape:window-y="468"
     inkscape:window-maximized="1"
     fit-margin-top="0"
     fit-margin-left="0"
     fit-margin-right="0"
     fit-margin-bottom="0">
    <inkscape:grid
       type="xygrid"
       id="grid976"
       originx="-26.307147"
       originy="-32.72333" />
  </sodipodi:namedview>
  <metadata
     id="metadata5">
    <rdf:RDF>
      <cc:Work
         rdf:about="">
        <dc:format>image/svg+xml</dc:format>
        <dc:type
           rdf:resource="http://purl.org/dc/dcmitype/StillImage" />
        <dc:title></dc:title>
      </cc:Work>
    </rdf:RDF>
  </metadata>
  <g
     inkscape:label="レイヤー 1"
     inkscape:groupmode="layer"
     id="layer1"
     transform="translate(-26.307147,-32.723331)">
    <g
       aria-label="orangeliner.net"
       transform="scale(0.80295262,1.2454035)"
       id="text835"
       style="font-style:normal;font-weight:normal;font-size:13.1805px;line-height:1.25;font-family:sans-serif;fill:#ff6633;fill-opacity:1;stroke:none;stroke-width:0.33;stroke-linejoin:miter;stroke-miterlimit:4;stroke-dasharray:none;stroke-opacity:1">
      <g
         id="g891">
        <path
           d="m 32.763013,44.192526 0.926753,-10.503211 h 6.425494 l -0.926754,10.503211 z m 1.019429,-8.649703 0.154459,-1.853508 h 20.481261 l -0.154459,1.853508 z m 13.437931,8.649703 0.926754,-10.503211 h 6.425494 l -0.926754,10.503211 z m -14.45736,0 0.18535,-1.853508 h 20.481261 l -0.154458,1.853508 z"
           style="font-style:normal;font-variant:normal;font-weight:normal;font-stretch:normal;font-size:31.6332px;font-family:'851Gkktt';-inkscape-font-specification:'851Gkktt';fill:#f9f9f9;fill-opacity:1;stroke:none;stroke-width:1;stroke-linejoin:miter;stroke-miterlimit:4;stroke-dasharray:none;stroke-opacity:1"
           id="path845" />
        <path
           d="m 57.476451,44.192526 0.926754,-10.503211 h 6.425493 l -0.926754,10.503211 z m 1.019429,-8.649703 0.154459,-1.853508 h 17.144947 l -0.154459,1.853508 z"
           style="font-style:normal;font-variant:normal;font-weight:normal;font-stretch:normal;font-size:31.6332px;font-family:'851Gkktt';-inkscape-font-specification:'851Gkktt';fill:#f9f9f9;fill-opacity:1;stroke:none;stroke-width:1;stroke-linejoin:miter;stroke-miterlimit:4;stroke-dasharray:none;stroke-opacity:1"
           id="path847" />
        <path
           d="m 78.575547,44.192526 0.556052,-6.456386 h 6.425494 l -0.556052,6.456386 z m 14.488253,0 0.926753,-10.503211 h 6.425497 l -0.926757,10.503211 z m -14.488253,0 0.185351,-1.853508 H 99.242159 L 99.0877,44.192526 Z m 0.556052,-4.602878 0.154459,-1.853508 h 20.481261 l -0.154459,1.853508 z m 0.463377,-4.046825 0.154459,-1.853508 H 100.2307 l -0.15446,1.853508 z"
           style="font-style:normal;font-variant:normal;font-weight:normal;font-stretch:normal;font-size:31.6332px;font-family:'851Gkktt';-inkscape-font-specification:'851Gkktt';fill:#f9f9f9;fill-opacity:1;stroke:none;stroke-width:1;stroke-linejoin:miter;stroke-miterlimit:4;stroke-dasharray:none;stroke-opacity:1"
           id="path849" />
        <path
           d="m 103.28898,44.192526 0.92676,-10.503211 h 6.42549 l -0.92675,10.503211 z m 1.01943,-8.649703 0.15446,-1.853508 h 20.48126 l -0.15446,1.853508 z m 13.43793,8.649703 0.92676,-10.503211 h 6.42549 l -0.92675,10.503211 z"
           style="font-style:normal;font-variant:normal;font-weight:normal;font-stretch:normal;font-size:31.6332px;font-family:'851Gkktt';-inkscape-font-specification:'851Gkktt';fill:#f9f9f9;fill-opacity:1;stroke:none;stroke-width:1;stroke-linejoin:miter;stroke-miterlimit:4;stroke-dasharray:none;stroke-opacity:1"
           id="path851" />
        <path
           d="m 128.00242,44.192526 0.92676,-10.503211 h 6.42549 l -0.92675,10.503211 z m 0,0 0.18535,-1.853508 h 20.48126 l -0.15445,1.853508 z m 1.01943,-8.649703 0.15446,-1.853508 h 20.48126 l -0.15446,1.853508 z m 13.06723,12.943662 1.29746,-14.79717 h 6.42549 l -1.29745,14.79717 z m -14.45736,0 0.18535,-1.853507 h 20.48126 l -0.15446,1.853507 z"
           style="font-style:normal;font-variant:normal;font-weight:normal;font-stretch:normal;font-size:31.6332px;font-family:'851Gkktt';-inkscape-font-specification:'851Gkktt';fill:#f9f9f9;fill-opacity:1;stroke:none;stroke-width:1;stroke-linejoin:miter;stroke-miterlimit:4;stroke-dasharray:none;stroke-opacity:1"
           id="path853" />
        <path
           d="m 167.57482,39.589648 0.49427,-5.900333 h 6.42549 l -0.49427,5.900333 z m -14.85896,4.602878 0.92676,-10.503211 h 6.42549 l -0.92675,10.503211 z m 0,0 0.18535,-1.853508 h 20.48126 l -0.15445,1.853508 z m 0.55606,-4.602878 0.15445,-1.853508 h 20.48127 l -0.15446,1.853508 z m 0.46337,-4.046825 0.15446,-1.853508 h 20.48126 l -0.15446,1.853508 z"
           style="font-style:normal;font-variant:normal;font-weight:normal;font-stretch:normal;font-size:31.6332px;font-family:'851Gkktt';-inkscape-font-specification:'851Gkktt';fill:#f9f9f9;fill-opacity:1;stroke:none;stroke-width:1;stroke-linejoin:miter;stroke-miterlimit:4;stroke-dasharray:none;stroke-opacity:1"
           id="path855" />
        <path
           d="m 177.46019,44.192526 1.57549,-17.917242 h 6.42549 l -1.57548,17.917242 z"
           style="font-style:normal;font-variant:normal;font-weight:normal;font-stretch:normal;font-size:31.6332px;font-family:'851Gkktt';-inkscape-font-specification:'851Gkktt';fill:#f9f9f9;fill-opacity:1;stroke:none;stroke-width:1;stroke-linejoin:miter;stroke-miterlimit:4;stroke-dasharray:none;stroke-opacity:1"
           id="path857" />
        <path
           d="m 189.56978,29.240896 0.24714,-2.965612 h 6.42549 l -0.24713,2.965612 z m -1.26656,14.95163 0.89586,-10.503211 h 6.42549 l -0.89586,10.503211 z"
           style="font-style:normal;font-variant:normal;font-weight:normal;font-stretch:normal;font-size:31.6332px;font-family:'851Gkktt';-inkscape-font-specification:'851Gkktt';fill:#f9f9f9;fill-opacity:1;stroke:none;stroke-width:1;stroke-linejoin:miter;stroke-miterlimit:4;stroke-dasharray:none;stroke-opacity:1"
           id="path859" />
        <path
           d="m 198.37394,44.192526 0.92676,-10.503211 h 6.42549 l -0.92675,10.503211 z m 1.01943,-8.649703 0.15446,-1.853508 h 20.48126 l -0.15446,1.853508 z m 13.43793,8.649703 0.92676,-10.503211 h 6.42549 l -0.92675,10.503211 z"
           style="font-style:normal;font-variant:normal;font-weight:normal;font-stretch:normal;font-size:31.6332px;font-family:'851Gkktt';-inkscape-font-specification:'851Gkktt';fill:#f9f9f9;fill-opacity:1;stroke:none;stroke-width:1;stroke-linejoin:miter;stroke-miterlimit:4;stroke-dasharray:none;stroke-opacity:1"
           id="path861" />
        <path
           d="m 237.94632,39.589648 0.49427,-5.900333 h 6.4255 l -0.49427,5.900333 z m -14.85895,4.602878 0.92675,-10.503211 h 6.4255 l -0.92676,10.503211 z m 0,0 0.18535,-1.853508 h 20.48126 l -0.15446,1.853508 z m 0.55605,-4.602878 0.15446,-1.853508 h 20.48126 l -0.15446,1.853508 z m 0.46338,-4.046825 0.15446,-1.853508 h 20.48126 l -0.15446,1.853508 z"
           style="font-style:normal;font-variant:normal;font-weight:normal;font-stretch:normal;font-size:31.6332px;font-family:'851Gkktt';-inkscape-font-specification:'851Gkktt';fill:#f9f9f9;fill-opacity:1;stroke:none;stroke-width:1;stroke-linejoin:miter;stroke-miterlimit:4;stroke-dasharray:none;stroke-opacity:1"
           id="path863" />
        <path
           d="m 247.80081,44.192526 0.92675,-10.503211 h 6.4255 l -0.92676,10.503211 z m 1.01943,-8.649703 0.15446,-1.853508 h 17.14494 l -0.15446,1.853508 z"
           style="font-style:normal;font-variant:normal;font-weight:normal;font-stretch:normal;font-size:31.6332px;font-family:'851Gkktt';-inkscape-font-specification:'851Gkktt';fill:#f9f9f9;fill-opacity:1;stroke:none;stroke-width:1;stroke-linejoin:miter;stroke-miterlimit:4;stroke-dasharray:none;stroke-opacity:1"
           id="path865" />
        <path
           d="m 268.21965,44.203933 0.39028,-3.162371 h 5.1091 l -0.39028,3.162371 z"
           style="font-style:normal;font-variant:normal;font-weight:normal;font-stretch:normal;font-size:31.6332px;font-family:'851Gkktt';-inkscape-font-specification:'851Gkktt';fill:#f9f9f9;fill-opacity:1;stroke:none;stroke-width:1;stroke-linejoin:miter;stroke-miterlimit:4;stroke-dasharray:none;stroke-opacity:1"
           id="path867" />
        <path
           d="m 276.83911,44.192526 0.92675,-10.503211 h 6.4255 l -0.92676,10.503211 z m 1.01943,-8.649703 0.15446,-1.853508 h 20.48126 l -0.15446,1.853508 z m 13.43793,8.649703 0.92675,-10.503211 h 6.4255 l -0.92676,10.503211 z"
           style="font-style:normal;font-variant:normal;font-weight:normal;font-stretch:normal;font-size:31.6332px;font-family:'851Gkktt';-inkscape-font-specification:'851Gkktt';fill:#f9f9f9;fill-opacity:1;stroke:none;stroke-width:1;stroke-linejoin:miter;stroke-miterlimit:4;stroke-dasharray:none;stroke-opacity:1"
           id="path869" />
        <path
           d="m 316.41149,39.589648 0.49427,-5.900333 h 6.42549 l -0.49427,5.900333 z m -14.85896,4.602878 0.92676,-10.503211 h 6.42549 l -0.92675,10.503211 z m 0,0 0.18535,-1.853508 h 20.48126 l -0.15445,1.853508 z m 0.55606,-4.602878 0.15445,-1.853508 h 20.48127 l -0.15446,1.853508 z m 0.46337,-4.046825 0.15446,-1.853508 h 20.48126 l -0.15446,1.853508 z"
           style="font-style:normal;font-variant:normal;font-weight:normal;font-stretch:normal;font-size:31.6332px;font-family:'851Gkktt';-inkscape-font-specification:'851Gkktt';fill:#f9f9f9;fill-opacity:1;stroke:none;stroke-width:1;stroke-linejoin:miter;stroke-miterlimit:4;stroke-dasharray:none;stroke-opacity:1"
           id="path871" />
        <path
           d="m 328.30483,44.192526 0.12357,-1.853508 h 9.48378 l -0.15446,1.853508 z m -1.29745,-8.649703 0.18535,-1.853508 h 11.46085 l -0.15446,1.853508 z m 0.7414,8.649703 1.29745,-15.167873 h 6.4255 l -1.29746,15.167873 z"
           style="font-style:normal;font-variant:normal;font-weight:normal;font-stretch:normal;font-size:31.6332px;font-family:'851Gkktt';-inkscape-font-specification:'851Gkktt';fill:#f9f9f9;fill-opacity:1;stroke:none;stroke-width:1;stroke-linejoin:miter;stroke-miterlimit:4;stroke-dasharray:none;stroke-opacity:1"
           id="path873" />
        <path
           d="m 44.822589,34.296309 0.471079,-5.008851 h 3.266162 l -0.471084,5.008851 z m 0.518189,-1.66872 c 0,0 0.947849,-2.354186 0.07852,-3.340131 h 8.714987 l -0.07852,0.883914 z"
           style="font-style:normal;font-variant:normal;font-weight:normal;font-stretch:normal;font-size:31.6332px;line-height:1.25;font-family:'851Gkktt';-inkscape-font-specification:'851Gkktt';fill:#88aa00;fill-opacity:1;stroke:none;stroke-width:0.492349;stroke-linejoin:miter;stroke-miterlimit:4;stroke-dasharray:none;stroke-opacity:1;paint-order:stroke fill markers"
           id="path865-6"
           sodipodi:nodetypes="cccccccccc" />
      </g>
    </g>
  </g>
</svg>
